<?xml version="1.0"?>
<svg xmlns="http://www.w3.org/2000/svg" xmlns:xlink="http://www.w3.org/1999/xlink" xmlns:svgjs="http://svgjs.com/svgjs" version="1.1" width="512" height="512" x="0" y="0" viewBox="0 0 496.718 496.718" style="enable-background:new 0 0 512 512" xml:space="preserve" class=""><g><g xmlns="http://www.w3.org/2000/svg"><path d="m463.551 409.42-420.395-36.78c-4.126-.361-7.179-3.999-6.818-8.125l25.014-285.908c.361-4.126 3.999-7.179 8.125-6.818l420.394 36.78c4.126.361 7.179 3.999 6.818 8.125l-25.014 285.908c-.36 4.127-3.998 7.179-8.124 6.818z" fill="#ffffff" data-original="#3b88f5" style="" class=""/><path d="m362.343 145.458h75v272h-75z" fill="#ffbc2b" data-original="#ffbc2b" style="" class=""/><path d="m437.343 417.458c0 4.142-3.358 7.5-7.5 7.5h-22.5l-30-22.65 30-22.65 18.24 13.98c7.14 5.48 11.76 14.11 11.76 23.82z" fill="#ffcf66" data-original="#ffcf66" style="" class=""/><path d="m407.343 145.458-407.343.343v272h407.343z" fill="#ffcf66" data-original="#ffcf66" style="" class=""/><path d="m407.343 379.658v45.3h-399.5c-4.142 0-7.5-3.358-7.5-7.5 0-9.71 4.62-18.34 11.78-23.82-.02 0 146.31-112.17 146.31-112.17h120.82z" fill="#ffe09e" data-original="#ffe09e" style="" class=""/><path d="m429.843 137.958c4.142 0 7.5 3.358 7.5 7.5 0 9.71-4.62 18.34-11.78 23.83.02 0-18.22 13.98-18.22 13.98l-30-22.655 30-22.655z" fill="#ffe09e" data-original="#ffe09e" style="" class=""/><path d="m279.253 281.468-42.17 32.32c-5.07 3.87-11.38 6.17-18.24 6.17s-13.17-2.3-18.22-6.17c-.02 0-42.19-32.32-42.19-32.32l-146.33-112.18c-7.14-5.49-11.76-14.12-11.76-23.83 0-4.142 3.358-7.5 7.5-7.5h399.5v45.31z" fill="#ffeecc" data-original="#ffeecc" style="" class=""/></g></g></svg>
