<svg xmlns="http://www.w3.org/2000/svg" version="1.1" xmlns:xlink="http://www.w3.org/1999/xlink" width="512" height="512" x="0" y="0" viewBox="0 0 512 512" style="enable-background:new 0 0 512 512" xml:space="preserve" class=""><g><path fill="#58bf93" d="M464.927 0H89.539L75.204 9.272 66.447 26.27v151.847l7.726 15.042L94 204.378h233.264l6.343-4.407h34.339l2.75 4.407h94.23c19.837 0 36.067-16.23 36.067-36.067V36.067C500.993 16.23 484.763 0 464.927 0z" opacity="1" data-original="#58bf93" class=""></path><path fill="#1fb580" d="M71.787 168.311V36.067C71.787 16.23 88.018 0 107.854 0h-60.78C27.237 0 11.007 16.23 11.007 36.067v132.245c0 19.837 16.23 36.067 36.067 36.067h60.781c-19.837-.001-36.068-16.231-36.068-36.068z" opacity="1" data-original="#1fb580" class=""></path><path fill="#ffcebe" d="M479.946 301.402a22.07 22.07 0 0 0-2.172.043l-15.48 18.693-2.115-7.367a21.619 21.619 0 0 0-2.618 10.337v-4.474c0-11.892-9.163-22.263-21.049-22.618a22.387 22.387 0 0 0-1.779.025l-5.404 9.922-9.529 8.78-3.099-7.268a21.607 21.607 0 0 0-2.571 10.247l-.001-4.474c-.001-11.892-9.165-22.264-21.052-22.618a21.873 21.873 0 0 0-1.777.025l-4.209 5.385-9.787 13.528-2.608-9.784a21.615 21.615 0 0 0-4 12.554V200.745c0-7.496-3.643-14.384-9.312-18.544h-5.972l-5.666 9.67v153.187l-22.483-1.431c0 7.772-9.092 11.978-15 6.929-10.266-8.774-24.749-19.469-40.05-25.492l-6.77 3.734v15.453l74.173 87.565 21.768 47.732 29.915 26.098 23.128 6.318a87.444 87.444 0 0 0 60.638-25.597c14.503-14.503 23.473-33.652 25.289-54.082.424-4.76.639-9.16.639-12.738V324.02c0-11.891-9.162-22.26-21.047-22.618z" opacity="1" data-original="#ffcebe" class=""></path><g fill="#ffb1a0"><path d="M327.238 343.981c3.61 3.918 6.986 7.514 10.108 10.182 5.908 5.05 15 .843 15-6.929V199.833c0-7.261 3.565-13.69 9.039-17.633-3.325-2.439-7.344-3.942-11.739-4.074-12.297-.368-22.383 9.492-22.383 21.706v143.795c.001.123-.02.235-.025.354zM355.827 453.553c-3.837-10.958-8.529-21.072-14.064-27.316-24.937-28.135-54.431-62.993-68.029-79.154-5.186-6.162-5.885-15.009-1.519-22.018a80.542 80.542 0 0 0-4.276-1.565c-7.884-2.605-16.853-.312-21.756 6.388-5.252 7.175-4.781 16.708.708 23.231 13.598 16.161 43.092 51.019 68.029 79.154 5.535 6.244 10.226 16.358 14.064 27.316 10.945 31.26 40.22 52.364 73.341 52.363 3.729 0 7.133.024 10.275.046a87.368 87.368 0 0 0 9.644-.483c-30.097-3.634-56.289-29.036-66.417-57.962z" fill="#ffb1a0" opacity="1" data-original="#ffb1a0" class=""></path></g><g fill="#ffb1a0"><path d="M380.998 338.832c5.69 0 10.302-4.612 10.302-10.302v-37.873c-11.475.58-20.604 10.062-20.604 21.682v16.191c0 5.689 4.613 10.302 10.302 10.302zM424.431 338.832c5.69 0 10.302-4.612 10.302-10.302v-32.488c-11.475.581-20.604 10.062-20.603 21.682v-1.491 12.297c-.001 5.689 4.611 10.302 10.301 10.302zM478.165 328.53v-24.285c0-.971-.14-1.908-.391-2.799-11.29.772-20.21 10.172-20.213 21.657v5.427c0 5.69 4.612 10.302 10.302 10.302s10.302-4.613 10.302-10.302z" fill="#ffb1a0" opacity="1" data-original="#ffb1a0" class=""></path></g><g fill="#dbedff"><path d="M398.536 60.824a7.726 7.726 0 0 0-7.726 7.726v41.409l-29.94-45.646a7.727 7.727 0 0 0-14.187 4.237v67.277a7.726 7.726 0 1 0 15.452 0V94.418l29.939 45.647a7.728 7.728 0 0 0 8.672 3.166 7.726 7.726 0 0 0 5.515-7.403V68.551a7.725 7.725 0 0 0-7.725-7.727zM326.455 60.824a7.726 7.726 0 0 0-7.726 7.726v67.277a7.726 7.726 0 1 0 15.452 0V68.551a7.726 7.726 0 0 0-7.726-7.727zM462.12 99.892h-11.706a7.726 7.726 0 1 0 0 15.452h3.98v1.337c0 6.297-5.123 11.42-11.42 11.42s-11.42-5.123-11.42-11.42V87.698c0-6.298 5.123-11.421 11.42-11.421 5.149 0 9.682 3.464 11.025 8.424a7.726 7.726 0 1 0 14.916-4.038c-3.162-11.68-13.829-19.838-25.941-19.838-14.818 0-26.873 12.055-26.873 26.873v28.984c0 14.818 12.055 26.872 26.873 26.872s26.873-12.054 26.873-26.872v-9.063a7.727 7.727 0 0 0-7.727-7.727zM305.542 63.051a7.722 7.722 0 0 0-10.927.074l-23.829 24.156v-18.73a7.726 7.726 0 1 0-15.452 0v24.121c-4.312-18.234-20.715-31.847-40.247-31.847-18.455 0-34.122 12.151-39.431 28.871-5.31-16.72-20.977-28.871-39.432-28.871-22.808 0-41.364 18.556-41.364 41.365 0 1.288.067 2.56.183 3.819a25.588 25.588 0 0 0-7.448-8.448 23.564 23.564 0 0 0 3.918-13.039c0-13.066-10.63-23.697-23.697-23.697H49.017a7.726 7.726 0 0 0-7.726 7.726v67.277a7.725 7.725 0 0 0 7.726 7.726h23.744c13.938 0 25.285-11.289 25.389-25.202 6.306 14.8 20.997 25.202 38.074 25.202 18.455 0 34.122-12.151 39.432-28.871 5.31 16.72 20.976 28.871 39.431 28.871 19.532 0 35.935-13.613 40.247-31.846v24.12a7.726 7.726 0 1 0 15.452 0V117.1l23.829 24.155a7.705 7.705 0 0 0 5.501 2.3 7.727 7.727 0 0 0 5.5-13.153l-27.831-28.211 27.831-28.213a7.727 7.727 0 0 0-.074-10.927zM67.815 76.277c4.546 0 8.244 3.698 8.244 8.244s-3.699 8.245-8.244 8.245H56.743v-16.49h11.072zm4.946 51.824H56.743V108.22h16.018c5.481 0 9.941 4.46 9.941 9.941 0 5.48-4.459 9.94-9.941 9.94zm63.462 0c-14.288 0-25.911-11.624-25.911-25.911s11.624-25.912 25.911-25.912 25.912 11.625 25.912 25.912-11.624 25.911-25.912 25.911zm78.864 0c-14.288 0-25.911-11.624-25.911-25.911s11.624-25.912 25.911-25.912c14.288 0 25.912 11.625 25.912 25.912s-11.625 25.911-25.912 25.911z" fill="#dbedff" opacity="1" data-original="#dbedff" class=""></path></g></g></svg>